# xmcd
#
# Track frame offsets:
#	150
#	14912
#	30090
#	44742
#	62595
#	81030
#	96532
#	114260
#	132397
#	147305
#	162777
#	177542
#	192720
#	207372
#	225222
#	243657
#	259159
#	276890
#	295027
#	309935
#
# Disc length: 4336 seconds
#
# Revision: 2
# Processed by: cddbd v1.5.2PL0 Copyright (c) Steve Scherf et al.
# Submitted via: audiograbber 1.83.01
#
DISCID=2510ee14
DTITLE=Various Artist - THMC0105
DYEAR=2001
DGENRE=Karaoke
TTITLE0=Davidson, Clay - Sometimes (Vocals)
TTITLE1=Gill, Vince - Shoot Straight From Your Heart (Vocals)
TTITLE2=Edwards, Meredith - A Rose Is A Rose (Vocals)
TTITLE3=Vassar, Phil - Rose Bouquet (Vocals)
TTITLE4=Clark, Terri - No Fear (Vocals)
TTITLE5=Chesney, Kenny - Don't Happen Twice (Vocals)
TTITLE6=Montgomery Gentry - She Couldn't Change Me (Vocals)
TTITLE7=Evans, Sara - I Could Not Ask For More (Vocals)
TTITLE8=Morgan, Lorrie And Kershaw, Sammy - He Drinks Tequila (Vocals)
TTITLE9=Brooks And Dunn - Ain't Nothing 'Bout You (Vocals)
TTITLE10=Davidson, Clay - Sometimes
TTITLE11=Gill, Vince - Shoot Straight From Your Heart
TTITLE12=Edwards, Meredith - A Rose Is A Rose
TTITLE13=Vassar, Phil - Rose Bouquet
TTITLE14=Clark, Terri - No Fear
TTITLE15=Chesney, Kenny - Don't Happen Twice
TTITLE16=Montgomery Gentry - She Couldn't Change Me
TTITLE17=Evans, Sara - I Could Not Ask For More
TTITLE18=Morgan, Lorrie And Kershaw, Sammy - He Drinks Tequila
TTITLE19=Brooks And Dunn - Ain't Nothing 'Bout You
EXTD=
EXTT0=
EXTT1=
EXTT2=
EXTT3=
EXTT4=
EXTT5=
EXTT6=
EXTT7=
EXTT8=
EXTT9=
EXTT10=
EXTT11=
EXTT12=
EXTT13=
EXTT14=
EXTT15=
EXTT16=
EXTT17=
EXTT18=
EXTT19=
PLAYORDER=
